<?xml version="1.0" encoding="UTF-8"?>
<svg id="Layer_1" data-name="Layer 1" xmlns="http://www.w3.org/2000/svg" viewBox="0 0 1920 1080">
  <defs>
    <style>
      .cls-1 {
        fill: none;
        stroke: #fff;
        stroke-miterlimit: 10;
      }
    </style>
  </defs>
  <path class="cls-1" d="M282.36,344.59v-19.67c.03-2.6-.03-6.3-.5-10.69-1.84-17.46-8.42-31.31-12.11-37.2-11.21-17.85-38.11-29.68-69.08-29.36h-9.48c-3.3,0-14.37-.04-22.28-8.19-7.07-7.29-7.8-17.12-8.25-23.16-.17-2.29-.14-4.2-.08-5.52v-12.27h0v-12.27c-.06-1.32-.09-3.23.08-5.52.45-6.04,1.17-15.87,8.25-23.16,7.97-8.21,19.13-8.19,22.35-8.19,9.1,0,16.33,3.13,21.67,9.38,5.35,6.26,8.01,14.62,8.01,25.08v14.67h61.43v-15.36c0-12.28-1.88-23.43-5.64-33.44-3.75-10.01-8.98-18.59-15.7-25.76-6.7-7.16-14.84-12.69-24.4-16.55-9.55-3.87-20.13-5.8-31.73-5.8h-23.2c-30.97-.32-57.87,11.51-69.08,29.36-3.69,5.88-10.27,19.73-12.11,37.19-.46,4.4-.53,8.09-.5,10.69v19.67h0v19.67c-.03,2.6.03,6.3.5,10.69,1.84,17.46,8.42,31.31,12.11,37.2,11.21,17.85,38.11,29.68,69.08,29.36h9.48c3.3,0,14.37.04,22.28,8.19,7.07,7.29,7.8,17.12,8.25,23.16.17,2.29.14,4.2.08,5.52v561.02c.06,1.32.09,3.23-.08,5.52-.45,6.04-1.17,15.87-8.25,23.16-7.97,8.21-19.13,8.19-22.35,8.19-9.1,0-16.33-3.13-21.67-9.38-5.35-6.26-8.01-14.62-8.01-25.08v-14.67h-61.43v15.36c0,12.28,1.88,23.43,5.64,33.44,3.75,10.01,8.98,18.59,15.7,25.76,6.7,7.16,14.84,12.69,24.4,16.55,9.55,3.87,20.13,5.8,31.73,5.8h23.2c30.97.32,57.87-11.51,69.08-29.36,3.69-5.88,10.27-19.73,12.11-37.19.46-4.4.53-8.09.5-10.69V344.59Z"/>
  <path class="cls-1" d="M1819.99,324.93c.03-2.6-.03-6.3-.5-10.69-1.84-17.46-8.42-31.31-12.11-37.2-11.21-17.85-38.11-29.68-69.08-29.36h-9.48c-3.3,0-14.37-.04-22.28-8.19-7.07-7.29-7.8-17.12-8.24-23.16-.17-2.29-.14-4.2-.08-5.52v-12.27h0v-12.27c-.06-1.32-.09-3.23.08-5.52.45-6.04,1.17-15.87,8.25-23.16,7.97-8.21,19.13-8.19,22.35-8.19,9.1,0,16.33,3.13,21.67,9.38,5.35,6.26,8.01,14.62,8.01,25.08v14.67h61.43v-15.36c0-12.28-1.88-23.43-5.64-33.44-3.75-10.01-8.98-18.59-15.7-25.76-6.7-7.16-14.84-12.69-24.4-16.55-9.55-3.87-20.13-5.8-31.73-5.8h-23.2c-30.97-.32-57.87,11.51-69.08,29.36-3.69,5.88-10.27,19.73-12.11,37.19-.46,4.4-.53,8.09-.5,10.69v19.67h0v19.67c-.03,2.6.03,6.3.5,10.69,1.84,17.46,8.42,31.31,12.11,37.2,11.21,17.85,38.11,29.68,69.08,29.36h9.48c3.3,0,14.37.04,22.28,8.19,7.07,7.29,7.8,17.12,8.25,23.16.17,2.29.14,4.2.08,5.52v12.27h0v536.48h0v12.27c.06,1.32.09,3.23-.08,5.52-.45,6.04-1.17,15.87-8.25,23.16-7.97,8.21-19.13,8.19-22.35,8.19-9.1,0-16.32-3.13-21.67-9.38-5.35-6.26-8.01-14.62-8.01-25.08v-14.67h-61.43v15.36c0,12.28,1.88,23.43,5.64,33.44,3.75,10.01,8.98,18.59,15.7,25.76,6.7,7.16,14.84,12.69,24.4,16.55,9.55,3.87,20.13,5.8,31.73,5.8h23.2c30.97.32,57.87-11.51,69.08-29.36,3.69-5.88,10.27-19.73,12.11-37.19.46-4.4.53-8.09.5-10.69v-19.67h0V344.59h0v-19.67Z"/>
  <path class="cls-1" d="M508.29,122.95c-6.03-6.48-13.71-11.65-23.03-15.53-9.33-3.87-20.36-5.8-33.1-5.8h-136.15v876.76h61.95V357.55h-.53v-112.61h70.64c12.06,0,22.92-1.71,32.59-5.12,9.67-3.41,17.86-8.24,24.57-14.5,6.71-6.25,11.83-13.76,15.36-22.52,3.52-8.76,5.29-18.6,5.29-29.52,0-9.78-1.42-18.99-4.27-27.64-2.85-8.64-7.28-16.21-13.31-22.69ZM463.76,175.33c-.23,5.01-1.65,9.33-4.27,12.97-2.62,3.64-6.88,5.46-12.8,5.46h-69.27v-40.95h69.27c3.18,0,5.91.68,8.19,2.05,2.27,1.36,4.09,3.13,5.46,5.29,1.36,2.16,2.33,4.55,2.9,7.17.57,2.62.74,5.29.51,8.02Z"/>
  <path class="cls-1" d="M730.94,123.97c-7.28-7.17-16.1-12.68-26.45-16.55-10.35-3.87-21.79-5.8-34.29-5.8h-31.39c-12.51,0-23.94,1.94-34.29,5.8-10.35,3.87-19.17,9.38-26.45,16.55-7.28,7.17-12.97,15.76-17.06,25.76-4.09,10.01-6.14,21.16-6.14,33.44v794.82h61.42V236.41h76.44v741.58h61.42V183.18c0-12.28-2.05-23.43-6.14-33.44-4.09-10.01-9.78-18.6-17.06-25.76ZM692.72,185.22h-76.44v-1.36c0-10.46,3.41-18.82,10.24-25.08,6.82-6.25,16.04-9.38,27.64-9.38s21.21,3.13,28.15,9.38c6.94,6.26,10.41,14.62,10.41,25.08v1.36Z"/>
  <path class="cls-1" d="M994.71,168.16c0-9.1-1.42-17.68-4.27-25.76-2.85-8.07-7.28-15.13-13.31-21.16-6.03-6.02-13.71-10.8-23.03-14.33-9.33-3.52-20.36-5.29-33.1-5.29h-129.33v876.37h61.42V236.75h55.62c5.46,0,9.73.85,12.8,2.56,3.07,1.71,5.29,3.87,6.65,6.48,1.36,2.62,2.22,5.46,2.56,8.53.34,3.07.51,5.97.51,8.7v714.97h61.42V266.78c0-11.6-1.42-21.5-4.27-29.69-2.85-8.19-7.91-14.78-15.18-19.79,14.33-11.83,21.5-28.21,21.5-49.14ZM932.6,169.53c-.23,3.87-1.65,7.17-4.27,9.9-2.62,2.73-6.88,4.09-12.8,4.09h-62.45v-30.71h62.45c6.6,0,11.2,1.82,13.82,5.46,2.61,3.64,3.7,7.4,3.24,11.26Z"/>
  <polygon class="cls-1" points="1216.51 118.34 1216.51 101.62 1152.01 101.62 1088.54 171.91 1088.54 101.62 1027.12 101.62 1027.12 357.55 1027.12 977.99 1088.54 977.99 1088.54 357.55 1088.54 357.55 1088.54 249.03 1103.22 234.36 1155.77 357.55 1155.77 977.99 1217.87 977.99 1217.87 357.55 1217.87 340.83 1147.58 188.64 1216.51 118.34"/>
  <polygon class="cls-1" points="1304.88 722.07 1305.57 722.07 1305.57 101.62 1243.46 101.62 1243.46 722.07 1243.46 977.99 1410.32 977.99 1410.32 926.81 1304.88 926.81 1304.88 722.07"/>
  <polygon class="cls-1" points="1497.71 909.13 1497.71 909.13 1497.71 889.89 1497.71 288.68 1497.71 231.28 1580.62 231.28 1580.62 180.1 1497.71 180.1 1497.71 156.21 1611.34 156.21 1611.34 101.62 1436.28 101.62 1436.28 288.68 1436.28 889.89 1436.28 909.13 1436.28 909.13 1436.28 942.21 1436.28 977.99 1611.68 977.99 1611.68 923.39 1497.71 923.39 1497.71 909.13"/>
</svg>